<svg width="72" height="73" viewBox="0 0 72 73" fill="none" xmlns="http://www.w3.org/2000/svg">
<g id="versatility 1">
<rect y="0.199341" width="72" height="72" rx="36" fill="#FFAF19"/>
<g id="Group">
<path id="Vector" d="M26.1429 23.0565C25.2715 23.0565 24.4357 23.4027 23.8195 24.0189C23.2034 24.6351 22.8572 25.4708 22.8572 26.3422C22.8572 27.2137 23.2034 28.0494 23.8195 28.6656C24.4357 29.2818 25.2715 29.6279 26.1429 29.6279H26.1758C27.0472 29.6279 27.8829 29.2818 28.4991 28.6656C29.1153 28.0494 29.4615 27.2137 29.4615 26.3422C29.4615 25.4708 29.1153 24.6351 28.4991 24.0189C27.8829 23.4027 27.0472 23.0565 26.1758 23.0565H26.1429ZM32.7143 36.1994C32.7143 35.328 33.0605 34.4922 33.6767 33.876C34.2929 33.2598 35.1286 32.9137 36 32.9137H36.0329C36.9043 32.9137 37.7401 33.2598 38.3562 33.876C38.9724 34.4922 39.3186 35.328 39.3186 36.1994C39.3186 37.0708 38.9724 37.9065 38.3562 38.5227C37.7401 39.1389 36.9043 39.4851 36.0329 39.4851H36C35.1286 39.4851 34.2929 39.1389 33.6767 38.5227C33.0605 37.9065 32.7143 37.0708 32.7143 36.1994ZM45.89 42.7708C45.0186 42.7708 44.1829 43.117 43.5667 43.7332C42.9505 44.3494 42.6043 45.1851 42.6043 46.0565C42.6043 46.9279 42.9505 47.7637 43.5667 48.3799C44.1829 48.9961 45.0186 49.3422 45.89 49.3422H45.9229C46.7943 49.3422 47.6301 48.9961 48.2462 48.3799C48.8624 47.7637 49.2086 46.9279 49.2086 46.0565C49.2086 45.1851 48.8624 44.3494 48.2462 43.7332C47.6301 43.117 46.7943 42.7708 45.9229 42.7708H45.89Z" fill="#545454"/>
<path id="Vector_2" fill-rule="evenodd" clip-rule="evenodd" d="M20.3929 13.1993C18.4321 13.1993 16.5517 13.9782 15.1653 15.3647C13.7789 16.7511 13 18.6315 13 20.5922V51.8065C13 53.7672 13.7789 55.6476 15.1653 57.034C16.5517 58.4205 18.4321 59.1993 20.3929 59.1993H51.6071C53.5679 59.1993 55.4483 58.4205 56.8347 57.034C58.2211 55.6476 59 53.7672 59 51.8065V20.5922C59 18.6315 58.2211 16.7511 56.8347 15.3647C55.4483 13.9782 53.5679 13.1993 51.6071 13.1993H20.3929ZM17.9286 20.5922C17.9286 19.9386 18.1882 19.3118 18.6503 18.8497C19.1125 18.3875 19.7393 18.1279 20.3929 18.1279H51.6071C52.2607 18.1279 52.8875 18.3875 53.3497 18.8497C53.8118 19.3118 54.0714 19.9386 54.0714 20.5922V51.8065C54.0714 52.4601 53.8118 53.0869 53.3497 53.549C52.8875 54.0111 52.2607 54.2708 51.6071 54.2708H20.3929C19.7393 54.2708 19.1125 54.0111 18.6503 53.549C18.1882 53.0869 17.9286 52.4601 17.9286 51.8065V20.5922Z" fill="#545454"/>
</g>
</g>
</svg>
