<svg width="72" height="73" viewBox="0 0 72 73" fill="none" xmlns="http://www.w3.org/2000/svg">
<g id="control and report 1">
<rect y="0.199341" width="72" height="72" rx="36" fill="#FFAF19"/>
<g id="Group 11664">
<path id="Vector" d="M32.4042 12.2125C35.1132 12.2387 37.5671 14.6237 37.576 17.4771V24.9272H34.9183C34.9183 22.4274 34.9569 19.9272 34.9179 17.4277C34.889 16.1016 33.7702 14.8923 32.4036 14.8704C29.7546 14.8448 27.1048 14.8279 24.456 14.8706C23.137 14.9003 21.9708 16.078 21.9578 17.4619V24.9272H19.3002C19.3002 22.4221 19.2771 19.9166 19.3006 17.4115C19.3423 14.7294 21.6107 12.2584 24.4383 12.2129C27.0936 12.1871 29.7489 12.2041 32.4042 12.2125Z" fill="#545454" stroke="#545454"/>
<path id="Vector_2" d="M38.7005 24.8338C42.4212 24.8686 45.8502 28.0374 45.8626 32.0388V33.1182C45.814 34.0464 44.6151 34.648 43.891 33.996C43.656 33.7842 43.5268 33.6253 43.5003 33.1182C43.5003 31.7829 43.4012 30.4251 42.6864 29.353C41.8202 28.0541 40.3018 27.2212 38.7159 27.1965C31.8642 27.1326 25.0116 27.1326 18.16 27.1965C15.6848 27.2349 13.4164 29.3699 13.3758 31.9805C13.3238 37.5829 13.3238 43.186 13.3758 48.7885C13.4146 51.2826 15.5681 53.5649 18.222 53.5729H34.7593C35.5606 53.6149 35.7013 53.9657 35.8383 54.2738C36.1519 54.9779 35.5991 55.8912 34.7593 55.9353C29.2314 55.9353 23.7033 55.952 18.1753 55.9351C14.433 55.9002 11.0495 52.6709 11.0132 48.773C10.9959 43.1807 10.9959 37.5884 11.0132 31.9959C11.0479 28.2828 14.2434 24.8706 18.1753 24.8338C25.0169 24.8127 31.8587 24.8127 38.7005 24.8338Z" fill="#545454" stroke="#545454"/>
<path id="Vector_3" d="M28.1045 37.6146C30.6736 37.6634 33.0465 40.0209 32.6932 42.6913C32.577 43.5682 32.0831 44.3647 31.5088 45.0364C31.4876 45.0612 31.4647 45.0848 31.4455 45.1112C31.3273 45.2777 31.4023 45.7191 31.4021 46.078C31.4016 47.2485 31.5163 48.4362 31.3848 49.5857C31.2441 50.8175 30.1361 51.8563 28.8433 51.8811C28.0025 51.8862 27.128 51.9949 26.3874 51.7236C25.4112 51.3661 24.7072 50.382 24.6871 49.3229C24.6785 47.9645 24.6869 46.6062 24.6869 45.2476C24.6869 45.1279 24.5838 45.0409 24.5005 44.9413C23.713 43.99 23.2012 42.8097 23.442 41.4635C23.8083 39.4145 25.6512 37.7296 27.8047 37.6203C27.8895 37.616 27.8999 37.6132 28.1045 37.6146ZM28.0141 39.9768C26.6227 40.0034 25.1698 41.5243 25.9167 42.8646C26.3424 43.628 27.033 44.2706 27.0491 45.2151C27.057 46.5719 27.0493 47.9289 27.0493 49.2859C27.0493 49.4109 27.1542 49.5164 27.2751 49.5188C27.7856 49.5219 28.296 49.519 28.8065 49.5188C28.927 49.5188 29.0323 49.4201 29.039 49.3024C29.0992 47.9431 29.0325 46.5829 29.0404 45.2151C29.061 43.9851 30.4131 43.0945 30.3527 42.1403C30.2786 40.9727 29.2758 39.9689 28.0141 39.9768Z" fill="#545454" stroke="#545454"/>
<path id="Vector_4" d="M47.2481 46.5647L47.2474 46.5647C47.1577 46.5645 47.0681 46.5647 46.9788 46.565L46.9777 46.5651C43.2603 46.5985 39.5553 47.4572 36.185 48.9862L36.185 48.9862C34.9838 49.5311 33.9548 50.4908 33.5467 51.7628C33.3726 52.3051 33.3182 52.8781 33.3064 53.4488C33.2993 53.7943 33.3079 54.1542 33.3165 54.5079C33.3218 54.7288 33.3271 54.9472 33.3284 55.1581L33.3284 55.1581L33.3285 55.1613C33.3734 57.5291 35.4221 59.4731 37.7068 59.4877H37.7084C39.8017 59.4877 41.8955 59.4921 43.9896 59.4965C48.1998 59.5052 52.4112 59.514 56.6217 59.4874L56.6249 59.4873C58.464 59.4524 60.1437 58.214 60.7206 56.5094L60.4838 56.4293L60.7206 56.5094C60.9069 55.9588 60.9636 55.3765 60.9751 54.7962C60.9818 54.4577 60.9728 54.1017 60.964 53.7515C60.958 53.5147 60.952 53.2805 60.9511 53.0559L60.9511 53.0536C60.9263 51.2268 59.7132 49.7068 58.1182 48.9813L58.1182 48.9813C54.7227 47.4373 50.9904 46.5835 47.2481 46.5647ZM36.6363 56.1795L36.6363 56.1794L35.9504 53.0672L36.2004 53.0728C36.2004 53.0724 36.2004 53.0721 36.2004 53.0717C36.2147 52.4554 36.6604 51.9164 37.289 51.6287C40.3555 50.2253 43.712 49.4456 47.0785 49.427C50.6264 49.4203 54.1066 50.2085 57.2377 51.7282C57.7252 51.9707 57.9484 52.4174 58.0432 53.0279C58.1177 53.5078 58.1073 54.046 58.0964 54.6104C58.0932 54.7794 58.0898 54.9507 58.0888 55.1235C58.0724 55.9319 57.3678 56.6095 56.587 56.6252C50.2889 56.6649 43.9905 56.6649 37.6922 56.6252C37.2955 56.6172 36.9118 56.4552 36.6363 56.1795Z" fill="#545454" stroke="#545454" stroke-width="0.5"/>
<path id="Vector_5" d="M47.1848 31.9033L47.1848 31.9033L45.8839 45.3187L45.8368 45.5642C45.8368 45.5642 45.8368 45.5642 45.8368 45.5642C48.2819 46.0332 50.5085 45.0849 52.015 43.4928C53.5186 41.9039 54.3231 39.6548 53.9085 37.4927L53.9085 37.4927C53.3069 34.3564 50.337 31.9333 47.1848 31.9033ZM43.1968 37.9581L43.1968 37.9581C43.5747 36.1695 45.2926 34.7836 47.1129 34.7656C47.1484 34.7656 47.1834 34.7658 47.218 34.7664C49.6357 34.8205 51.4533 37.156 51.1267 39.3852C50.9439 40.6323 50.1201 41.6515 49.0475 42.2413C47.9737 42.8317 46.6776 42.9769 45.5727 42.5092C43.8623 41.7852 42.8144 39.7666 43.1968 37.9581ZM40.5676 39.764L40.5676 39.764L40.5676 39.764Z" fill="#545454" stroke="#545454" stroke-width="0.5"/>
</g>
</g>
</svg>
