<svg width="72" height="73" viewBox="0 0 72 73" fill="none" xmlns="http://www.w3.org/2000/svg">
<g id="Usage Fee 1">
<rect y="0.199341" width="72" height="72" rx="36" fill="#FFAF19"/>
<path id="Vector" d="M15 34.7462C15.0001 35.3031 15.2214 35.8372 15.6153 36.2309L35.9687 56.5844C36.3625 56.9781 36.8966 57.1992 37.4534 57.1992C38.0103 57.1992 38.5443 56.9781 38.9382 56.5844L56.3851 39.1395C56.7788 38.7457 57 38.2116 57 37.6548C57 37.0979 56.7788 36.5639 56.3851 36.17L36.0317 15.8145C35.638 15.4207 35.1039 15.1993 34.547 15.1992H17.1C16.5431 15.1992 16.0089 15.4205 15.6151 15.8143C15.2213 16.2081 15 16.7423 15 17.2992V34.7462ZM19.2 19.3993H33.6776L51.931 37.6527L37.4534 52.1302L19.2 33.8768V19.3993ZM31.6385 26.0227C32.2135 26.5978 32.6052 27.3304 32.7638 28.1281C32.9225 28.9257 32.8411 29.7524 32.5299 30.5038C32.2186 31.2551 31.6916 31.8973 31.0154 32.3491C30.3392 32.801 29.5442 33.0421 28.731 33.0421C27.9177 33.0421 27.1228 32.801 26.4466 32.3491C25.7704 31.8973 25.2434 31.2551 24.9321 30.5038C24.6209 29.7524 24.5395 28.9257 24.6982 28.1281C24.8568 27.3304 25.2485 26.5978 25.8235 26.0227C26.2052 25.6407 26.6584 25.3376 27.1573 25.1308C27.6562 24.924 28.191 24.8176 28.731 24.8176C29.271 24.8176 29.8058 24.924 30.3047 25.1308C30.8036 25.3376 31.2568 25.6407 31.6385 26.0227Z" fill="#545454"/>
</g>
</svg>
