<svg width="72" height="73" viewBox="0 0 72 73" fill="none" xmlns="http://www.w3.org/2000/svg">
<g id="documents 1">
<rect y="0.199341" width="72" height="72" rx="36" fill="#FFAF19"/>
<path id="Vector" fill-rule="evenodd" clip-rule="evenodd" d="M27.7072 11.1992C26.253 11.1992 24.8584 11.7809 23.8302 12.8163C22.802 13.8517 22.2243 15.2561 22.2243 16.7203V19.4809H19.4829C18.0287 19.4809 16.6341 20.0626 15.6059 21.098C14.5777 22.1334 14 23.5377 14 25.002V54.6781C14 56.1424 14.5777 57.5467 15.6059 58.5821C16.6341 59.6175 18.0287 60.1992 19.4829 60.1992H44.2928C45.747 60.1992 47.1416 59.6175 48.1698 58.5821C49.198 57.5467 49.7757 56.1424 49.7757 54.6781V51.9175H52.5171C53.9713 51.9175 55.3659 51.3358 56.3941 50.3004C57.4223 49.265 58 47.8607 58 46.3964V25.1677C57.9991 23.7605 57.4647 22.4067 56.5059 21.3829L48.5996 12.9356C48.0871 12.3874 47.4685 11.9506 46.7821 11.652C46.0957 11.3533 45.3558 11.1993 44.6081 11.1992H27.7072ZM44.2928 51.9175H27.7072C26.253 51.9175 24.8584 51.3358 23.8302 50.3004C22.802 49.265 22.2243 47.8607 22.2243 46.3964V25.002H19.4829V54.6781H44.2928V51.9175ZM27.7072 22.2415V46.3964H52.5171V25.1677L44.6081 16.7203H27.7072V22.2415Z" fill="#545454"/>
</g>
</svg>
