<svg width="72" height="73" viewBox="0 0 72 73" fill="none" xmlns="http://www.w3.org/2000/svg">
<g id="Frame">
<rect y="0.199341" width="72" height="72" rx="36" fill="#FAAD1D"/>
<g id="Group 903">
<path id="Union" fill-rule="evenodd" clip-rule="evenodd" d="M63.0003 23.075C63.0003 27.4873 59.4235 31.0641 55.0112 31.0641C54.807 31.0641 54.6047 31.0564 54.4044 31.0414C54.4796 31.2071 54.5576 31.3783 54.6386 31.5552C54.6439 31.5672 54.6494 31.5792 54.6549 31.5911C54.6617 31.6057 54.6685 31.6202 54.675 31.6343H57.5789C58.4348 31.6343 58.4413 32.0623 58.4413 33.3463C58.4413 34.4091 58.1342 34.5602 57.6688 34.789C57.6189 34.8136 57.5671 34.8391 57.5136 34.8667C57.5136 34.8667 60.6818 36.2352 61.0028 36.7702C61.3237 37.3052 61.8587 40.3011 61.8587 45.3299C61.8587 50.3587 61.4307 55.6015 61.4307 55.6015H60.1468C60.1468 56.9925 59.9328 57.3135 59.5048 57.3135H50.7311C50.0891 57.3135 49.8751 57.0995 49.8751 55.6015H22.4841C22.4841 57.0995 22.2701 57.3135 21.6281 57.3135H13.0684C12.4264 57.3135 12.206 57.0995 12.206 55.6015H10.9285C10.9285 55.6015 10.5005 50.4657 10.5005 45.3299C10.5005 40.1941 10.9285 37.1982 11.3565 36.7702C11.7844 36.3422 14.8456 34.8667 14.8456 34.8667C14.7922 34.8391 14.7404 34.8136 14.6904 34.789C14.2251 34.5602 13.918 34.4091 13.918 33.3463C13.918 32.0623 13.9244 31.6343 14.7739 31.6343H17.681C17.6878 31.6222 17.6948 31.6106 17.7012 31.6002C17.7138 31.5794 17.7238 31.563 17.7238 31.5552C18.0788 30.8404 18.3744 30.2226 18.6326 29.6832C19.9688 26.891 20.2998 26.1995 22.6456 25.0337C26.3927 23.1688 33.4234 23.0746 36.1796 23.0746C38.3757 23.0746 43.2857 23.1344 47.0875 24.1021C47.0444 23.7658 47.0221 23.423 47.0221 23.075C47.0221 18.6628 50.599 15.0859 55.0112 15.0859C59.4235 15.0859 63.0003 18.6628 63.0003 23.075ZM55.0112 19.0805C55.5627 19.0805 56.0098 19.5276 56.0098 20.0791V22.0764H58.0071C58.5586 22.0764 59.0057 22.5235 59.0057 23.075C59.0057 23.6265 58.5586 24.0736 58.0071 24.0736H56.0098V26.0709C56.0098 26.6224 55.5627 27.0695 55.0112 27.0695C54.4597 27.0695 54.0126 26.6224 54.0126 26.0709V24.0736H52.0153C51.4638 24.0736 51.0167 23.6265 51.0167 23.075C51.0167 22.5235 51.4638 22.0764 52.0153 22.0764H54.0126V20.0791C54.0126 19.5276 54.4597 19.0805 55.0112 19.0805ZM16.3232 41.906C18.2835 41.9009 20.2422 41.7916 22.1909 41.5786L22.9121 41.478C22.9121 41.478 22.8051 41.157 22.3386 40.8189C21.3663 40.1002 20.2771 39.555 19.119 39.2075C16.8422 38.5367 15.6363 38.4821 14.3524 38.4821H14.0314L13.964 38.8085C13.8698 39.4284 13.8514 40.0576 13.9094 40.682C14.0492 41.9195 14.1238 41.9191 15.7676 41.9083C15.9358 41.9072 16.1204 41.906 16.3232 41.906ZM48.1632 50.4657L48.6361 49.2823V49.2887C49.064 48.2215 48.503 47.9461 47.956 47.6774C47.8997 47.6498 47.8436 47.6223 47.7887 47.5939C46.2009 46.7722 41.3154 45.3299 36.1796 45.3299C31.0438 45.3299 26.2536 47.0033 24.6144 47.5939C23.768 47.8978 23.2331 48.4328 23.661 49.2695C24.2377 50.4004 24.196 50.4657 24.196 50.4657H48.1632ZM20.1002 34.6816C20.4461 34.6966 20.7925 34.6941 21.1381 34.6741H51.219C51.299 34.6769 51.3727 34.6795 51.4409 34.6819C51.8729 34.6972 52.0817 34.7046 52.2665 34.6944C52.0994 34.4032 51.9777 34.0924 51.8508 33.7682C51.76 33.5362 51.6665 33.2975 51.5518 33.0542C50.6915 31.2363 49.7168 29.1766 47.9738 28.3089C45.4551 27.0506 40.2348 26.49 36.1796 26.49C32.1244 26.49 26.9041 27.0549 24.3854 28.3089C22.6424 29.1766 21.6634 31.2353 20.8074 33.0542C20.6916 33.2995 20.597 33.5404 20.505 33.7744C20.3805 34.0915 20.2609 34.3959 20.1002 34.6816ZM58.0664 41.7157C58.2284 41.5498 58.2459 41.243 58.3428 40.6777V40.682C58.4381 40.0635 58.4557 39.4356 58.3953 38.8127C58.3895 38.7278 58.3526 38.6481 58.2915 38.5888C58.2305 38.5296 58.1497 38.495 58.0646 38.4917C56.7989 38.4468 55.5171 38.5367 53.2402 39.2075C52.0787 39.5463 50.988 40.0922 50.0207 40.8189C49.7767 41.0094 49.8634 41.524 50.1683 41.5786C52.117 41.7916 54.0757 41.9009 56.036 41.906C57.3575 41.906 57.8459 41.9416 58.0664 41.7157Z" fill="#545454"/>
</g>
</g>
</svg>
