<svg width="48" height="49" viewBox="0 0 48 49" fill="none" xmlns="http://www.w3.org/2000/svg">
<g id="Frame" clip-path="url(#clip0_1442_1116)">
<g id="Group">
<path id="Vector" d="M30.804 42.3184V28.3864H35.47L36.168 22.9704H30.804V19.5144C30.804 17.9464 31.24 16.8764 33.488 16.8764H36.356V12.0324C34.9676 11.885 33.5722 11.8136 32.176 11.8184C28.042 11.8184 25.212 14.3424 25.212 18.9784V22.9704H20.536V28.3864H25.212V42.3184H8C7.46957 42.3184 6.96086 42.1076 6.58579 41.7326C6.21071 41.3575 6 40.8488 6 40.3184V8.31836C6 7.78793 6.21071 7.27922 6.58579 6.90415C6.96086 6.52907 7.46957 6.31836 8 6.31836H40C40.5304 6.31836 41.0391 6.52907 41.4142 6.90415C41.7893 7.27922 42 7.78793 42 8.31836V40.3184C42 40.8488 41.7893 41.3575 41.4142 41.7326C41.0391 42.1076 40.5304 42.3184 40 42.3184H30.804Z" fill="#FAAD1D"/>
</g>
</g>
<defs>
<clipPath id="clip0_1442_1116">
<rect width="48" height="48" fill="white" transform="translate(0 0.318359)"/>
</clipPath>
</defs>
</svg>
