<svg width="48" height="49" viewBox="0 0 48 49" fill="none" xmlns="http://www.w3.org/2000/svg">
<g id="Frame" clip-path="url(#clip0_1442_1124)">
<g id="Group">
<path id="Vector" d="M24 4.31836C29.434 4.31836 30.112 4.33836 32.244 4.43836C34.374 4.53836 35.824 4.87236 37.1 5.36836C38.42 5.87636 39.532 6.56436 40.644 7.67436C41.661 8.67415 42.4479 9.88354 42.95 11.2184C43.444 12.4924 43.78 13.9444 43.88 16.0744C43.974 18.2064 44 18.8844 44 24.3184C44 29.7524 43.98 30.4304 43.88 32.5624C43.78 34.6924 43.444 36.1424 42.95 37.4184C42.4494 38.7539 41.6622 39.9636 40.644 40.9624C39.6439 41.979 38.4346 42.7659 37.1 43.2684C35.826 43.7624 34.374 44.0984 32.244 44.1984C30.112 44.2924 29.434 44.3184 24 44.3184C18.566 44.3184 17.888 44.2984 15.756 44.1984C13.626 44.0984 12.176 43.7624 10.9 43.2684C9.56465 42.7673 8.35505 41.9802 7.356 40.9624C6.33881 39.9627 5.55186 38.7533 5.05 37.4184C4.554 36.1444 4.22 34.6924 4.12 32.5624C4.026 30.4304 4 29.7524 4 24.3184C4 18.8844 4.02 18.2064 4.12 16.0744C4.22 13.9424 4.554 12.4944 5.05 11.2184C5.55047 9.88272 6.33761 8.673 7.356 7.67436C8.35534 6.65682 9.56486 5.86982 10.9 5.36836C12.176 4.87236 13.624 4.53836 15.756 4.43836C17.888 4.34436 18.566 4.31836 24 4.31836ZM24 14.3184C21.3478 14.3184 18.8043 15.3719 16.9289 17.2473C15.0536 19.1227 14 21.6662 14 24.3184C14 26.9705 15.0536 29.5141 16.9289 31.3894C18.8043 33.2648 21.3478 34.3184 24 34.3184C26.6522 34.3184 29.1957 33.2648 31.0711 31.3894C32.9464 29.5141 34 26.9705 34 24.3184C34 21.6662 32.9464 19.1227 31.0711 17.2473C29.1957 15.3719 26.6522 14.3184 24 14.3184ZM37 13.8184C37 13.1553 36.7366 12.5194 36.2678 12.0506C35.7989 11.5818 35.163 11.3184 34.5 11.3184C33.837 11.3184 33.2011 11.5818 32.7322 12.0506C32.2634 12.5194 32 13.1553 32 13.8184C32 14.4814 32.2634 15.1173 32.7322 15.5861C33.2011 16.055 33.837 16.3184 34.5 16.3184C35.163 16.3184 35.7989 16.055 36.2678 15.5861C36.7366 15.1173 37 14.4814 37 13.8184ZM24 18.3184C25.5913 18.3184 27.1174 18.9505 28.2426 20.0757C29.3679 21.2009 30 22.7271 30 24.3184C30 25.9097 29.3679 27.4358 28.2426 28.561C27.1174 29.6862 25.5913 30.3184 24 30.3184C22.4087 30.3184 20.8826 29.6862 19.7574 28.561C18.6321 27.4358 18 25.9097 18 24.3184C18 22.7271 18.6321 21.2009 19.7574 20.0757C20.8826 18.9505 22.4087 18.3184 24 18.3184Z" fill="#FAAD1D"/>
</g>
</g>
<defs>
<clipPath id="clip0_1442_1124">
<rect width="48" height="48" fill="white" transform="translate(0 0.318359)"/>
</clipPath>
</defs>
</svg>
