<svg width="48" height="49" viewBox="0 0 48 49" fill="none" xmlns="http://www.w3.org/2000/svg">
<g id="Frame" clip-path="url(#clip0_1442_1120)">
<g id="Group">
<path id="Vector" d="M36.67 36.9964H31.34V28.6424C31.34 26.6504 31.3 24.0864 28.56 24.0864C25.782 24.0864 25.358 26.2544 25.358 28.4964V36.9964H20.026V19.8184H25.146V22.1584H25.216C25.932 20.8104 27.672 19.3844 30.272 19.3844C35.672 19.3844 36.672 22.9404 36.672 27.5664V36.9964H36.67ZM14.006 17.4684C13.5991 17.4689 13.1961 17.3891 12.8201 17.2336C12.4441 17.078 12.1025 16.8498 11.8149 16.562C11.5273 16.2742 11.2993 15.9325 11.144 15.5564C10.9887 15.1803 10.9092 14.7772 10.91 14.3704C10.9104 13.758 11.0924 13.1596 11.4329 12.6507C11.7734 12.1417 12.2572 11.7452 12.8231 11.5113C13.3889 11.2773 14.0115 11.2164 14.612 11.3362C15.2124 11.4561 15.7639 11.7513 16.1966 12.1846C16.6293 12.6178 16.9238 13.1697 17.0429 13.7703C17.162 14.371 17.1003 14.9934 16.8656 15.559C16.6309 16.1246 16.2337 16.6078 15.7244 16.9477C15.215 17.2876 14.6183 17.4688 14.006 17.4684ZM16.678 36.9964H11.332V19.8184H16.68V36.9964H16.678ZM39.34 6.31836H8.658C7.186 6.31836 6 7.47836 6 8.91236V39.7244C6 41.1584 7.188 42.3184 8.656 42.3184H39.332C40.8 42.3184 42 41.1584 42 39.7244V8.91236C42 7.47836 40.8 6.31836 39.332 6.31836H39.34Z" fill="#FAAD1D"/>
</g>
</g>
<defs>
<clipPath id="clip0_1442_1120">
<rect width="48" height="48" fill="white" transform="translate(0 0.318359)"/>
</clipPath>
</defs>
</svg>
