<svg width="1500" height="501" viewBox="0 0 1500 501" fill="none" xmlns="http://www.w3.org/2000/svg">
<rect y="0.323242" width="1500" height="500" fill="url(#paint0_linear_952_5413)"/>
<g clip-path="url(#clip0_952_5413)">
<path fill-rule="evenodd" clip-rule="evenodd" d="M803.95 114.881C790.659 99.147 772.909 91.3232 750.525 91.3232C730.676 91.3232 713.975 97.7561 700.335 110.535C686.083 123.922 679 142.612 679 166.431C679 187.208 684.771 204.333 696.313 217.981C702.084 224.762 708.729 230.065 716.249 233.89L727.966 201.204C727.703 200.943 727.441 200.595 727.179 200.334C720.446 192.337 717.123 180.949 717.123 166.171C717.123 153.566 719.746 143.308 724.993 135.658C731.026 126.617 739.42 122.097 750.262 122.097C759.618 122.097 767.225 125.487 772.996 132.268C779.729 140.004 783.052 151.132 783.052 165.649C783.052 179.906 780.166 191.033 774.395 199.031C774.046 199.552 773.608 200.074 773.259 200.508L785.063 233.368C790.047 230.673 794.681 227.283 798.878 223.197C813.568 209.201 821 190.337 821 166.518C821 145.742 815.317 128.617 803.95 114.881Z" fill="white"/>
<path d="M746.502 231.282L745.803 238.41H756.47L755.771 231.282H746.502ZM747.289 205.637L746.677 219.894H755.508L754.896 205.637H747.289ZM747.989 179.471L747.464 190.859H754.721L754.197 179.471H747.989ZM748.426 162.432L748.076 170.082H754.022L753.672 162.432H748.426ZM748.776 148.263L748.601 153.044H753.585L753.41 148.263H748.776Z" fill="#333333"/>
<path d="M753.41 174.864C753.235 174.429 752.886 174.081 752.536 173.82C752.186 173.56 751.662 173.473 751.224 173.473C750.787 173.473 750.35 173.56 749.913 173.82C749.563 174.081 749.213 174.429 749.038 174.864L736.972 199.552C736.71 199.987 736.622 200.508 736.71 201.03C736.797 201.551 736.972 202.073 737.409 202.421C737.759 202.768 738.196 203.029 738.721 203.116C739.245 203.203 739.77 203.116 740.207 202.942L751.224 198.074L762.242 202.942C762.679 203.116 763.203 203.203 763.728 203.116C764.253 203.029 764.69 202.768 765.04 202.421C765.389 202.073 765.652 201.551 765.652 201.03C765.739 200.508 765.652 199.987 765.389 199.552L753.41 174.864Z" fill="white"/>
<path d="M752.186 193.119C751.836 192.945 751.574 192.945 751.224 192.945C750.875 192.945 750.525 193.032 750.263 193.119L744.404 195.727L751.312 181.644L758.219 195.727L752.186 193.119ZM753.41 174.864C753.235 174.429 752.886 174.081 752.536 173.82C752.186 173.56 751.662 173.473 751.224 173.473C750.787 173.473 750.35 173.56 749.913 173.82C749.563 174.081 749.213 174.429 749.038 174.864L736.972 199.552C736.71 199.987 736.622 200.508 736.71 201.03C736.797 201.551 736.972 202.073 737.409 202.421C737.759 202.768 738.196 203.029 738.721 203.116C739.245 203.203 739.77 203.116 740.207 202.942L751.224 198.074L762.242 202.942C762.679 203.116 763.203 203.203 763.728 203.116C764.253 203.029 764.69 202.768 765.04 202.421C765.389 202.073 765.652 201.551 765.652 201.03C765.739 200.508 765.652 199.987 765.389 199.552L753.41 174.864Z" fill="#333333"/>
<path d="M749.825 139.222H750.35L714.5 238.323H694.127L749.825 139.222Z" fill="#333333"/>
<path d="M751.661 139.222H751.224L786.986 238.323H807.36L751.661 139.222Z" fill="#333333"/>
</g>
<path d="M64.55 321.323V275.823H87.82C93.8 275.823 98.2633 276.928 101.21 279.138C104.157 281.305 105.63 284.165 105.63 287.718C105.63 290.058 105.002 292.117 103.745 293.893C102.532 295.627 100.798 297.013 98.545 298.053C96.335 299.05 93.6917 299.548 90.615 299.548L91.915 296.428C95.1217 296.428 97.9167 296.927 100.3 297.923C102.683 298.877 104.525 300.285 105.825 302.148C107.168 303.968 107.84 306.2 107.84 308.843C107.84 312.787 106.237 315.863 103.03 318.073C99.8667 320.24 95.23 321.323 89.12 321.323H64.55ZM77.29 312.028H88.08C90.29 312.028 91.9583 311.66 93.085 310.923C94.255 310.143 94.84 308.973 94.84 307.413C94.84 305.853 94.255 304.705 93.085 303.968C91.9583 303.188 90.29 302.798 88.08 302.798H76.38V293.893H86.13C88.2967 293.893 89.9217 293.525 91.005 292.788C92.0883 292.052 92.63 290.947 92.63 289.473C92.63 288 92.0883 286.917 91.005 286.223C89.9217 285.487 88.2967 285.118 86.13 285.118H77.29V312.028ZM132.381 321.908C128.221 321.908 124.581 321.128 121.461 319.568C118.384 317.965 115.979 315.798 114.246 313.068C112.556 310.295 111.711 307.153 111.711 303.643C111.711 300.133 112.534 297.013 114.181 294.283C115.871 291.51 118.189 289.365 121.136 287.848C124.083 286.288 127.398 285.508 131.081 285.508C134.548 285.508 137.711 286.223 140.571 287.653C143.431 289.04 145.706 291.098 147.396 293.828C149.086 296.558 149.931 299.873 149.931 303.773C149.931 304.207 149.909 304.705 149.866 305.268C149.823 305.832 149.779 306.352 149.736 306.828H121.851V300.328H143.171L138.491 302.148C138.534 300.545 138.231 299.158 137.581 297.988C136.974 296.818 136.108 295.908 134.981 295.258C133.898 294.608 132.619 294.283 131.146 294.283C129.673 294.283 128.373 294.608 127.246 295.258C126.163 295.908 125.318 296.84 124.711 298.053C124.104 299.223 123.801 300.61 123.801 302.213V304.098C123.801 305.832 124.148 307.327 124.841 308.583C125.578 309.84 126.618 310.815 127.961 311.508C129.304 312.158 130.908 312.483 132.771 312.483C134.504 312.483 135.978 312.245 137.191 311.768C138.448 311.248 139.683 310.468 140.896 309.428L147.396 316.188C145.706 318.052 143.626 319.482 141.156 320.478C138.686 321.432 135.761 321.908 132.381 321.908ZM163.375 321.323L150.83 286.093H162.53L172.475 315.538H166.885L177.22 286.093H187.75L197.695 315.538H192.235L202.505 286.093H213.36L200.815 321.323H188.855L180.405 296.948H184.045L175.335 321.323H163.375ZM237.443 321.323V314.758L236.598 313.133V301.043C236.598 299.093 235.991 297.598 234.778 296.558C233.608 295.475 231.723 294.933 229.123 294.933C227.433 294.933 225.721 295.215 223.988 295.778C222.255 296.298 220.781 297.035 219.568 297.988L215.408 289.603C217.401 288.303 219.785 287.307 222.558 286.613C225.375 285.877 228.17 285.508 230.943 285.508C236.663 285.508 241.083 286.83 244.203 289.473C247.366 292.073 248.948 296.168 248.948 301.758V321.323H237.443ZM227.043 321.908C224.226 321.908 221.843 321.432 219.893 320.478C217.943 319.525 216.448 318.225 215.408 316.578C214.411 314.932 213.913 313.09 213.913 311.053C213.913 308.887 214.455 307.023 215.538 305.463C216.665 303.86 218.376 302.647 220.673 301.823C222.97 300.957 225.938 300.523 229.578 300.523H237.898V306.958H231.268C229.275 306.958 227.866 307.283 227.043 307.933C226.263 308.583 225.873 309.45 225.873 310.533C225.873 311.617 226.285 312.483 227.108 313.133C227.931 313.783 229.058 314.108 230.488 314.108C231.831 314.108 233.045 313.783 234.128 313.133C235.255 312.44 236.078 311.4 236.598 310.013L238.288 314.563C237.638 316.99 236.36 318.832 234.453 320.088C232.59 321.302 230.12 321.908 227.043 321.908ZM256.743 321.323V286.093H268.508V296.363L266.753 293.438C267.793 290.795 269.483 288.823 271.823 287.523C274.163 286.18 277.002 285.508 280.338 285.508V296.623C279.775 296.537 279.277 296.493 278.843 296.493C278.453 296.45 278.02 296.428 277.543 296.428C275.03 296.428 272.993 297.122 271.433 298.508C269.873 299.852 269.093 302.062 269.093 305.138V321.323H256.743ZM303.577 321.908C299.417 321.908 295.777 321.128 292.657 319.568C289.581 317.965 287.176 315.798 285.442 313.068C283.752 310.295 282.907 307.153 282.907 303.643C282.907 300.133 283.731 297.013 285.377 294.283C287.067 291.51 289.386 289.365 292.332 287.848C295.279 286.288 298.594 285.508 302.277 285.508C305.744 285.508 308.907 286.223 311.767 287.653C314.627 289.04 316.902 291.098 318.592 293.828C320.282 296.558 321.127 299.873 321.127 303.773C321.127 304.207 321.106 304.705 321.062 305.268C321.019 305.832 320.976 306.352 320.932 306.828H293.047V300.328H314.367L309.687 302.148C309.731 300.545 309.427 299.158 308.777 297.988C308.171 296.818 307.304 295.908 306.177 295.258C305.094 294.608 303.816 294.283 302.342 294.283C300.869 294.283 299.569 294.608 298.442 295.258C297.359 295.908 296.514 296.84 295.907 298.053C295.301 299.223 294.997 300.61 294.997 302.213V304.098C294.997 305.832 295.344 307.327 296.037 308.583C296.774 309.84 297.814 310.815 299.157 311.508C300.501 312.158 302.104 312.483 303.967 312.483C305.701 312.483 307.174 312.245 308.387 311.768C309.644 311.248 310.879 310.468 312.092 309.428L318.592 316.188C316.902 318.052 314.822 319.482 312.352 320.478C309.882 321.432 306.957 321.908 303.577 321.908ZM369.267 322.233C365.627 322.233 362.269 321.648 359.192 320.478C356.116 319.308 353.429 317.662 351.132 315.538C348.879 313.372 347.124 310.858 345.867 307.998C344.611 305.138 343.982 301.997 343.982 298.573C343.982 295.15 344.611 292.008 345.867 289.148C347.124 286.288 348.879 283.797 351.132 281.673C353.429 279.507 356.116 277.838 359.192 276.668C362.269 275.498 365.627 274.913 369.267 274.913C372.951 274.913 376.309 275.498 379.342 276.668C382.419 277.838 385.084 279.507 387.337 281.673C389.591 283.797 391.346 286.288 392.602 289.148C393.902 292.008 394.552 295.15 394.552 298.573C394.552 301.997 393.902 305.16 392.602 308.063C391.346 310.923 389.591 313.415 387.337 315.538C385.084 317.662 382.419 319.308 379.342 320.478C376.309 321.648 372.951 322.233 369.267 322.233ZM369.267 311.573C371.001 311.573 372.604 311.27 374.077 310.663C375.594 310.057 376.894 309.19 377.977 308.063C379.104 306.893 379.971 305.507 380.577 303.903C381.227 302.3 381.552 300.523 381.552 298.573C381.552 296.58 381.227 294.803 380.577 293.243C379.971 291.64 379.104 290.275 377.977 289.148C376.894 287.978 375.594 287.09 374.077 286.483C372.604 285.877 371.001 285.573 369.267 285.573C367.534 285.573 365.909 285.877 364.392 286.483C362.919 287.09 361.619 287.978 360.492 289.148C359.409 290.275 358.542 291.64 357.892 293.243C357.286 294.803 356.982 296.58 356.982 298.573C356.982 300.523 357.286 302.3 357.892 303.903C358.542 305.507 359.409 306.893 360.492 308.063C361.619 309.19 362.919 310.057 364.392 310.663C365.909 311.27 367.534 311.573 369.267 311.573ZM402.138 321.323V286.483C402.138 282.237 403.395 278.857 405.908 276.343C408.465 273.787 412.105 272.508 416.828 272.508C418.345 272.508 419.84 272.66 421.313 272.963C422.786 273.267 424.021 273.722 425.018 274.328L421.963 283.038C421.443 282.735 420.858 282.497 420.208 282.323C419.558 282.107 418.908 281.998 418.258 281.998C416.958 281.998 415.94 282.388 415.203 283.168C414.51 283.905 414.163 285.053 414.163 286.613V289.148L414.488 294.283V321.323H402.138ZM397.003 296.623V287.393H422.548V296.623H397.003ZM446.615 321.323V275.823H467.415C471.575 275.823 475.15 276.495 478.14 277.838C481.174 279.182 483.514 281.132 485.16 283.688C486.807 286.202 487.63 289.192 487.63 292.658C487.63 296.082 486.807 299.05 485.16 301.563C483.514 304.033 481.174 305.94 478.14 307.283C475.15 308.583 471.575 309.233 467.415 309.233H453.765L459.485 303.838V321.323H446.615ZM474.76 321.323L463.45 304.748H477.165L488.54 321.323H474.76ZM459.485 305.203L453.765 299.288H466.635C469.322 299.288 471.315 298.703 472.615 297.533C473.959 296.363 474.63 294.738 474.63 292.658C474.63 290.535 473.959 288.888 472.615 287.718C471.315 286.548 469.322 285.963 466.635 285.963H453.765L459.485 280.048V305.203ZM494.146 321.323V286.093H506.496V321.323H494.146ZM500.321 282.193C498.067 282.193 496.247 281.565 494.861 280.308C493.474 279.052 492.781 277.492 492.781 275.628C492.781 273.765 493.474 272.205 494.861 270.948C496.247 269.692 498.067 269.063 500.321 269.063C502.574 269.063 504.394 269.67 505.781 270.883C507.167 272.053 507.861 273.57 507.861 275.433C507.861 277.383 507.167 279.008 505.781 280.308C504.437 281.565 502.617 282.193 500.321 282.193ZM527.327 321.908C524.337 321.908 521.412 321.562 518.552 320.868C515.735 320.175 513.46 319.308 511.727 318.268L515.432 309.818C517.078 310.815 519.007 311.617 521.217 312.223C523.427 312.787 525.593 313.068 527.717 313.068C529.797 313.068 531.227 312.852 532.007 312.418C532.83 311.985 533.242 311.4 533.242 310.663C533.242 309.97 532.852 309.472 532.072 309.168C531.335 308.822 530.338 308.562 529.082 308.388C527.868 308.215 526.525 308.02 525.052 307.803C523.578 307.587 522.083 307.305 520.567 306.958C519.093 306.568 517.728 306.005 516.472 305.268C515.258 304.488 514.283 303.448 513.547 302.148C512.81 300.848 512.442 299.202 512.442 297.208C512.442 294.955 513.092 292.962 514.392 291.228C515.735 289.452 517.685 288.065 520.242 287.068C522.798 286.028 525.918 285.508 529.602 285.508C532.072 285.508 534.563 285.768 537.077 286.288C539.633 286.765 541.778 287.502 543.512 288.498L539.807 296.883C538.073 295.887 536.34 295.215 534.607 294.868C532.873 294.478 531.227 294.283 529.667 294.283C527.587 294.283 526.113 294.522 525.247 294.998C524.423 295.475 524.012 296.06 524.012 296.753C524.012 297.447 524.38 297.988 525.117 298.378C525.853 298.725 526.828 299.007 528.042 299.223C529.298 299.397 530.663 299.592 532.137 299.808C533.61 299.982 535.083 300.263 536.557 300.653C538.073 301.043 539.438 301.628 540.652 302.408C541.908 303.145 542.905 304.163 543.642 305.463C544.378 306.72 544.747 308.345 544.747 310.338C544.747 312.505 544.075 314.455 542.732 316.188C541.432 317.922 539.482 319.308 536.882 320.348C534.325 321.388 531.14 321.908 527.327 321.908ZM550.069 321.323V286.093H562.419V321.323H550.069ZM556.244 282.193C553.99 282.193 552.17 281.565 550.784 280.308C549.397 279.052 548.704 277.492 548.704 275.628C548.704 273.765 549.397 272.205 550.784 270.948C552.17 269.692 553.99 269.063 556.244 269.063C558.497 269.063 560.317 269.67 561.704 270.883C563.09 272.053 563.784 273.57 563.784 275.433C563.784 277.383 563.09 279.008 561.704 280.308C560.36 281.565 558.54 282.193 556.244 282.193ZM593.389 285.508C596.119 285.508 598.589 286.072 600.799 287.198C603.009 288.282 604.743 289.972 605.999 292.268C607.299 294.565 607.949 297.533 607.949 301.173V321.323H595.599V303.188C595.599 300.675 595.079 298.855 594.039 297.728C593.043 296.558 591.634 295.973 589.814 295.973C588.514 295.973 587.323 296.277 586.239 296.883C585.156 297.447 584.311 298.335 583.704 299.548C583.098 300.762 582.794 302.343 582.794 304.293V321.323H570.444V286.093H582.209V296.103L579.934 293.178C581.278 290.622 583.119 288.715 585.459 287.458C587.799 286.158 590.443 285.508 593.389 285.508ZM633.373 334.518C629.993 334.518 626.764 334.128 623.688 333.348C620.654 332.568 618.054 331.42 615.888 329.903L620.373 321.258C621.846 322.428 623.666 323.338 625.833 323.988C628.043 324.682 630.188 325.028 632.268 325.028C635.604 325.028 638.009 324.292 639.483 322.818C640.956 321.388 641.693 319.287 641.693 316.513V312.353L642.343 302.473L642.278 292.528V286.093H654.043V314.888C654.043 321.562 652.244 326.502 648.648 329.708C645.051 332.915 639.959 334.518 633.373 334.518ZM631.228 319.503C628.108 319.503 625.226 318.81 622.583 317.423C619.983 315.993 617.881 314.022 616.278 311.508C614.718 308.952 613.938 305.94 613.938 302.473C613.938 299.007 614.718 296.017 616.278 293.503C617.881 290.947 619.983 288.975 622.583 287.588C625.226 286.202 628.108 285.508 631.228 285.508C634.218 285.508 636.774 286.115 638.898 287.328C641.021 288.498 642.624 290.34 643.708 292.853C644.834 295.367 645.398 298.573 645.398 302.473C645.398 306.373 644.834 309.58 643.708 312.093C642.624 314.607 641.021 316.47 638.898 317.683C636.774 318.897 634.218 319.503 631.228 319.503ZM634.153 309.688C635.626 309.688 636.926 309.385 638.053 308.778C639.223 308.172 640.133 307.327 640.783 306.243C641.476 305.16 641.823 303.903 641.823 302.473C641.823 301.043 641.476 299.787 640.783 298.703C640.133 297.62 639.223 296.797 638.053 296.233C636.926 295.627 635.626 295.323 634.153 295.323C632.679 295.323 631.358 295.627 630.188 296.233C629.018 296.797 628.086 297.62 627.393 298.703C626.743 299.787 626.418 301.043 626.418 302.473C626.418 303.903 626.743 305.16 627.393 306.243C628.086 307.327 629.018 308.172 630.188 308.778C631.358 309.385 632.679 309.688 634.153 309.688ZM693.309 293.438H714.434V303.058H693.309V293.438ZM694.219 311.378H718.009V321.323H681.479V275.823H717.164V285.768H694.219V311.378ZM770.456 285.508C773.186 285.508 775.612 286.072 777.736 287.198C779.902 288.282 781.592 289.972 782.806 292.268C784.062 294.565 784.691 297.533 784.691 301.173V321.323H772.341V303.188C772.341 300.675 771.864 298.855 770.911 297.728C769.957 296.558 768.657 295.973 767.011 295.973C765.841 295.973 764.779 296.255 763.826 296.818C762.872 297.382 762.136 298.248 761.616 299.418C761.096 300.545 760.836 302.018 760.836 303.838V321.323H748.486V303.188C748.486 300.675 748.009 298.855 747.056 297.728C746.146 296.558 744.846 295.973 743.156 295.973C741.942 295.973 740.859 296.255 739.906 296.818C738.996 297.382 738.259 298.248 737.696 299.418C737.176 300.545 736.916 302.018 736.916 303.838V321.323H724.566V286.093H736.331V295.908L733.991 293.113C735.291 290.6 737.067 288.715 739.321 287.458C741.574 286.158 744.087 285.508 746.861 285.508C750.024 285.508 752.797 286.332 755.181 287.978C757.607 289.582 759.232 292.095 760.056 295.518L756.026 294.673C757.282 291.813 759.167 289.582 761.681 287.978C764.237 286.332 767.162 285.508 770.456 285.508ZM814.001 321.323V314.758L813.156 313.133V301.043C813.156 299.093 812.549 297.598 811.336 296.558C810.166 295.475 808.281 294.933 805.681 294.933C803.991 294.933 802.279 295.215 800.546 295.778C798.812 296.298 797.339 297.035 796.126 297.988L791.966 289.603C793.959 288.303 796.342 287.307 799.116 286.613C801.932 285.877 804.727 285.508 807.501 285.508C813.221 285.508 817.641 286.83 820.761 289.473C823.924 292.073 825.506 296.168 825.506 301.758V321.323H814.001ZM803.601 321.908C800.784 321.908 798.401 321.432 796.451 320.478C794.501 319.525 793.006 318.225 791.966 316.578C790.969 314.932 790.471 313.09 790.471 311.053C790.471 308.887 791.012 307.023 792.096 305.463C793.222 303.86 794.934 302.647 797.231 301.823C799.527 300.957 802.496 300.523 806.136 300.523H814.456V306.958H807.826C805.832 306.958 804.424 307.283 803.601 307.933C802.821 308.583 802.431 309.45 802.431 310.533C802.431 311.617 802.842 312.483 803.666 313.133C804.489 313.783 805.616 314.108 807.046 314.108C808.389 314.108 809.602 313.783 810.686 313.133C811.812 312.44 812.636 311.4 813.156 310.013L814.846 314.563C814.196 316.99 812.917 318.832 811.011 320.088C809.147 321.302 806.677 321.908 803.601 321.908ZM833.301 321.323V286.093H845.651V321.323H833.301ZM839.476 282.193C837.223 282.193 835.403 281.565 834.016 280.308C832.629 279.052 831.936 277.492 831.936 275.628C831.936 273.765 832.629 272.205 834.016 270.948C835.403 269.692 837.223 269.063 839.476 269.063C841.729 269.063 843.549 269.67 844.936 270.883C846.323 272.053 847.016 273.57 847.016 275.433C847.016 277.383 846.323 279.008 844.936 280.308C843.593 281.565 841.773 282.193 839.476 282.193ZM853.677 321.323V273.093H866.027V321.323H853.677ZM893.554 321.323V275.823H914.354C918.514 275.823 922.089 276.495 925.079 277.838C928.112 279.182 930.452 281.132 932.099 283.688C933.746 286.202 934.569 289.192 934.569 292.658C934.569 296.082 933.746 299.05 932.099 301.563C930.452 304.077 928.112 306.027 925.079 307.413C922.089 308.757 918.514 309.428 914.354 309.428H900.704L906.424 303.838V321.323H893.554ZM906.424 305.203L900.704 299.288H913.574C916.261 299.288 918.254 298.703 919.554 297.533C920.897 296.363 921.569 294.738 921.569 292.658C921.569 290.535 920.897 288.888 919.554 287.718C918.254 286.548 916.261 285.963 913.574 285.963H900.704L906.424 280.048V305.203ZM963.839 285.508C966.569 285.508 969.039 286.072 971.249 287.198C973.459 288.282 975.192 289.972 976.449 292.268C977.749 294.565 978.399 297.533 978.399 301.173V321.323H966.049V303.188C966.049 300.675 965.529 298.855 964.489 297.728C963.492 296.558 962.084 295.973 960.264 295.973C958.964 295.973 957.772 296.277 956.689 296.883C955.605 297.447 954.76 298.335 954.154 299.548C953.547 300.762 953.244 302.343 953.244 304.293V321.323H940.894V273.093H953.244V296.103L950.384 293.178C951.727 290.622 953.569 288.715 955.909 287.458C958.249 286.158 960.892 285.508 963.839 285.508ZM986.153 321.323V286.093H998.503V321.323H986.153ZM992.328 282.193C990.074 282.193 988.254 281.565 986.868 280.308C985.481 279.052 984.788 277.492 984.788 275.628C984.788 273.765 985.481 272.205 986.868 270.948C988.254 269.692 990.074 269.063 992.328 269.063C994.581 269.063 996.401 269.67 997.788 270.883C999.174 272.053 999.868 273.57 999.868 275.433C999.868 277.383 999.174 279.008 997.788 280.308C996.444 281.565 994.624 282.193 992.328 282.193ZM1019.33 321.908C1016.34 321.908 1013.42 321.562 1010.56 320.868C1007.74 320.175 1005.47 319.308 1003.73 318.268L1007.44 309.818C1009.09 310.815 1011.01 311.617 1013.22 312.223C1015.43 312.787 1017.6 313.068 1019.72 313.068C1021.8 313.068 1023.23 312.852 1024.01 312.418C1024.84 311.985 1025.25 311.4 1025.25 310.663C1025.25 309.97 1024.86 309.472 1024.08 309.168C1023.34 308.822 1022.35 308.562 1021.09 308.388C1019.88 308.215 1018.53 308.02 1017.06 307.803C1015.59 307.587 1014.09 307.305 1012.57 306.958C1011.1 306.568 1009.74 306.005 1008.48 305.268C1007.27 304.488 1006.29 303.448 1005.55 302.148C1004.82 300.848 1004.45 299.202 1004.45 297.208C1004.45 294.955 1005.1 292.962 1006.4 291.228C1007.74 289.452 1009.69 288.065 1012.25 287.068C1014.81 286.028 1017.93 285.508 1021.61 285.508C1024.08 285.508 1026.57 285.768 1029.08 286.288C1031.64 286.765 1033.79 287.502 1035.52 288.498L1031.81 296.883C1030.08 295.887 1028.35 295.215 1026.61 294.868C1024.88 294.478 1023.23 294.283 1021.67 294.283C1019.59 294.283 1018.12 294.522 1017.25 294.998C1016.43 295.475 1016.02 296.06 1016.02 296.753C1016.02 297.447 1016.39 297.988 1017.12 298.378C1017.86 298.725 1018.84 299.007 1020.05 299.223C1021.31 299.397 1022.67 299.592 1024.14 299.808C1025.62 299.982 1027.09 300.263 1028.56 300.653C1030.08 301.043 1031.45 301.628 1032.66 302.408C1033.92 303.145 1034.91 304.163 1035.65 305.463C1036.39 306.72 1036.75 308.345 1036.75 310.338C1036.75 312.505 1036.08 314.455 1034.74 316.188C1033.44 317.922 1031.49 319.308 1028.89 320.348C1026.33 321.388 1023.15 321.908 1019.33 321.908ZM1065.02 285.508C1067.75 285.508 1070.22 286.072 1072.43 287.198C1074.64 288.282 1076.37 289.972 1077.63 292.268C1078.93 294.565 1079.58 297.533 1079.58 301.173V321.323H1067.23V303.188C1067.23 300.675 1066.71 298.855 1065.67 297.728C1064.67 296.558 1063.27 295.973 1061.45 295.973C1060.15 295.973 1058.95 296.277 1057.87 296.883C1056.79 297.447 1055.94 298.335 1055.34 299.548C1054.73 300.762 1054.43 302.343 1054.43 304.293V321.323H1042.08V273.093H1054.43V296.103L1051.57 293.178C1052.91 290.622 1054.75 288.715 1057.09 287.458C1059.43 286.158 1062.07 285.508 1065.02 285.508ZM1087.33 321.323V286.093H1099.68V321.323H1087.33ZM1093.51 282.193C1091.26 282.193 1089.44 281.565 1088.05 280.308C1086.66 279.052 1085.97 277.492 1085.97 275.628C1085.97 273.765 1086.66 272.205 1088.05 270.948C1089.44 269.692 1091.26 269.063 1093.51 269.063C1095.76 269.063 1097.58 269.67 1098.97 270.883C1100.36 272.053 1101.05 273.57 1101.05 275.433C1101.05 277.383 1100.36 279.008 1098.97 280.308C1097.63 281.565 1095.81 282.193 1093.51 282.193ZM1130.66 285.508C1133.39 285.508 1135.86 286.072 1138.07 287.198C1140.28 288.282 1142.01 289.972 1143.27 292.268C1144.57 294.565 1145.22 297.533 1145.22 301.173V321.323H1132.87V303.188C1132.87 300.675 1132.35 298.855 1131.31 297.728C1130.31 296.558 1128.9 295.973 1127.08 295.973C1125.78 295.973 1124.59 296.277 1123.51 296.883C1122.42 297.447 1121.58 298.335 1120.97 299.548C1120.36 300.762 1120.06 302.343 1120.06 304.293V321.323H1107.71V286.093H1119.48V296.103L1117.2 293.178C1118.54 290.622 1120.39 288.715 1122.73 287.458C1125.07 286.158 1127.71 285.508 1130.66 285.508ZM1170.64 334.518C1167.26 334.518 1164.03 334.128 1160.95 333.348C1157.92 332.568 1155.32 331.42 1153.15 329.903L1157.64 321.258C1159.11 322.428 1160.93 323.338 1163.1 323.988C1165.31 324.682 1167.45 325.028 1169.53 325.028C1172.87 325.028 1175.27 324.292 1176.75 322.818C1178.22 321.388 1178.96 319.287 1178.96 316.513V312.353L1179.61 302.473L1179.54 292.528V286.093H1191.31V314.888C1191.31 321.562 1189.51 326.502 1185.91 329.708C1182.32 332.915 1177.22 334.518 1170.64 334.518ZM1168.49 319.503C1165.37 319.503 1162.49 318.81 1159.85 317.423C1157.25 315.993 1155.15 314.022 1153.54 311.508C1151.98 308.952 1151.2 305.94 1151.2 302.473C1151.2 299.007 1151.98 296.017 1153.54 293.503C1155.15 290.947 1157.25 288.975 1159.85 287.588C1162.49 286.202 1165.37 285.508 1168.49 285.508C1171.48 285.508 1174.04 286.115 1176.16 287.328C1178.29 288.498 1179.89 290.34 1180.97 292.853C1182.1 295.367 1182.66 298.573 1182.66 302.473C1182.66 306.373 1182.1 309.58 1180.97 312.093C1179.89 314.607 1178.29 316.47 1176.16 317.683C1174.04 318.897 1171.48 319.503 1168.49 319.503ZM1171.42 309.688C1172.89 309.688 1174.19 309.385 1175.32 308.778C1176.49 308.172 1177.4 307.327 1178.05 306.243C1178.74 305.16 1179.09 303.903 1179.09 302.473C1179.09 301.043 1178.74 299.787 1178.05 298.703C1177.4 297.62 1176.49 296.797 1175.32 296.233C1174.19 295.627 1172.89 295.323 1171.42 295.323C1169.94 295.323 1168.62 295.627 1167.45 296.233C1166.28 296.797 1165.35 297.62 1164.66 298.703C1164.01 299.787 1163.68 301.043 1163.68 302.473C1163.68 303.903 1164.01 305.16 1164.66 306.243C1165.35 307.327 1166.28 308.172 1167.45 308.778C1168.62 309.385 1169.94 309.688 1171.42 309.688ZM1234.73 322.233C1231.01 322.233 1227.41 321.778 1223.94 320.868C1220.52 319.915 1217.73 318.702 1215.56 317.228L1219.78 307.738C1221.82 309.038 1224.16 310.122 1226.8 310.988C1229.49 311.812 1232.16 312.223 1234.8 312.223C1236.58 312.223 1238.01 312.072 1239.09 311.768C1240.17 311.422 1240.95 310.988 1241.43 310.468C1241.95 309.905 1242.21 309.255 1242.21 308.518C1242.21 307.478 1241.73 306.655 1240.78 306.048C1239.83 305.442 1238.59 304.943 1237.07 304.553C1235.56 304.163 1233.87 303.773 1232 303.383C1230.18 302.993 1228.34 302.495 1226.48 301.888C1224.66 301.282 1222.99 300.502 1221.47 299.548C1219.96 298.552 1218.72 297.273 1217.77 295.713C1216.82 294.11 1216.34 292.095 1216.34 289.668C1216.34 286.938 1217.08 284.468 1218.55 282.258C1220.07 280.048 1222.32 278.272 1225.31 276.928C1228.3 275.585 1232.03 274.913 1236.49 274.913C1239.48 274.913 1242.4 275.26 1245.26 275.953C1248.17 276.603 1250.75 277.578 1253 278.878L1249.03 288.433C1246.87 287.263 1244.72 286.397 1242.6 285.833C1240.48 285.227 1238.42 284.923 1236.42 284.923C1234.65 284.923 1233.22 285.118 1232.13 285.508C1231.05 285.855 1230.27 286.332 1229.79 286.938C1229.32 287.545 1229.08 288.238 1229.08 289.018C1229.08 290.015 1229.53 290.817 1230.44 291.423C1231.4 291.987 1232.63 292.463 1234.15 292.853C1235.71 293.2 1237.4 293.568 1239.22 293.958C1241.08 294.348 1242.92 294.847 1244.74 295.453C1246.61 296.017 1248.3 296.797 1249.81 297.793C1251.33 298.747 1252.54 300.025 1253.45 301.628C1254.41 303.188 1254.88 305.16 1254.88 307.543C1254.88 310.187 1254.13 312.635 1252.61 314.888C1251.14 317.098 1248.9 318.875 1245.91 320.218C1242.97 321.562 1239.24 322.233 1234.73 322.233ZM1278.25 321.908C1274.35 321.908 1270.86 321.128 1267.78 319.568C1264.75 318.008 1262.37 315.863 1260.63 313.133C1258.9 310.36 1258.03 307.197 1258.03 303.643C1258.03 300.09 1258.9 296.948 1260.63 294.218C1262.37 291.488 1264.75 289.365 1267.78 287.848C1270.86 286.288 1274.35 285.508 1278.25 285.508C1282.24 285.508 1285.68 286.353 1288.58 288.043C1291.49 289.733 1293.55 292.117 1294.76 295.193L1285.2 300.068C1284.38 298.422 1283.36 297.23 1282.15 296.493C1280.94 295.713 1279.61 295.323 1278.18 295.323C1276.75 295.323 1275.45 295.648 1274.28 296.298C1273.11 296.948 1272.18 297.902 1271.49 299.158C1270.84 300.372 1270.51 301.867 1270.51 303.643C1270.51 305.463 1270.84 307.002 1271.49 308.258C1272.18 309.515 1273.11 310.468 1274.28 311.118C1275.45 311.768 1276.75 312.093 1278.18 312.093C1279.61 312.093 1280.94 311.725 1282.15 310.988C1283.36 310.208 1284.38 308.995 1285.2 307.348L1294.76 312.223C1293.55 315.3 1291.49 317.683 1288.58 319.373C1285.68 321.063 1282.24 321.908 1278.25 321.908ZM1320.92 321.323V314.758L1320.08 313.133V301.043C1320.08 299.093 1319.47 297.598 1318.26 296.558C1317.09 295.475 1315.2 294.933 1312.6 294.933C1310.91 294.933 1309.2 295.215 1307.47 295.778C1305.74 296.298 1304.26 297.035 1303.05 297.988L1298.89 289.603C1300.88 288.303 1303.27 287.307 1306.04 286.613C1308.86 285.877 1311.65 285.508 1314.42 285.508C1320.14 285.508 1324.56 286.83 1327.68 289.473C1330.85 292.073 1332.43 296.168 1332.43 301.758V321.323H1320.92ZM1310.52 321.908C1307.71 321.908 1305.32 321.432 1303.37 320.478C1301.42 319.525 1299.93 318.225 1298.89 316.578C1297.89 314.932 1297.39 313.09 1297.39 311.053C1297.39 308.887 1297.94 307.023 1299.02 305.463C1300.15 303.86 1301.86 302.647 1304.15 301.823C1306.45 300.957 1309.42 300.523 1313.06 300.523H1321.38V306.958H1314.75C1312.76 306.958 1311.35 307.283 1310.52 307.933C1309.74 308.583 1309.35 309.45 1309.35 310.533C1309.35 311.617 1309.77 312.483 1310.59 313.133C1311.41 313.783 1312.54 314.108 1313.97 314.108C1315.31 314.108 1316.53 313.783 1317.61 313.133C1318.74 312.44 1319.56 311.4 1320.08 310.013L1321.77 314.563C1321.12 316.99 1319.84 318.832 1317.93 320.088C1316.07 321.302 1313.6 321.908 1310.52 321.908ZM1386.11 285.508C1388.84 285.508 1391.27 286.072 1393.39 287.198C1395.56 288.282 1397.25 289.972 1398.46 292.268C1399.72 294.565 1400.35 297.533 1400.35 301.173V321.323H1388V303.188C1388 300.675 1387.52 298.855 1386.57 297.728C1385.62 296.558 1384.32 295.973 1382.67 295.973C1381.5 295.973 1380.44 296.255 1379.48 296.818C1378.53 297.382 1377.79 298.248 1377.27 299.418C1376.75 300.545 1376.49 302.018 1376.49 303.838V321.323H1364.14V303.188C1364.14 300.675 1363.67 298.855 1362.71 297.728C1361.8 296.558 1360.5 295.973 1358.81 295.973C1357.6 295.973 1356.52 296.255 1355.56 296.818C1354.65 297.382 1353.92 298.248 1353.35 299.418C1352.83 300.545 1352.57 302.018 1352.57 303.838V321.323H1340.22V286.093H1351.99V295.908L1349.65 293.113C1350.95 290.6 1352.73 288.715 1354.98 287.458C1357.23 286.158 1359.75 285.508 1362.52 285.508C1365.68 285.508 1368.46 286.332 1370.84 287.978C1373.27 289.582 1374.89 292.095 1375.71 295.518L1371.68 294.673C1372.94 291.813 1374.83 289.582 1377.34 287.978C1379.9 286.332 1382.82 285.508 1386.11 285.508ZM1420.95 321.908C1417.96 321.908 1415.03 321.562 1412.17 320.868C1409.36 320.175 1407.08 319.308 1405.35 318.268L1409.05 309.818C1410.7 310.815 1412.63 311.617 1414.84 312.223C1417.05 312.787 1419.22 313.068 1421.34 313.068C1423.42 313.068 1424.85 312.852 1425.63 312.418C1426.45 311.985 1426.86 311.4 1426.86 310.663C1426.86 309.97 1426.47 309.472 1425.69 309.168C1424.96 308.822 1423.96 308.562 1422.7 308.388C1421.49 308.215 1420.15 308.02 1418.67 307.803C1417.2 307.587 1415.71 307.305 1414.19 306.958C1412.72 306.568 1411.35 306.005 1410.09 305.268C1408.88 304.488 1407.91 303.448 1407.17 302.148C1406.43 300.848 1406.06 299.202 1406.06 297.208C1406.06 294.955 1406.71 292.962 1408.01 291.228C1409.36 289.452 1411.31 288.065 1413.86 287.068C1416.42 286.028 1419.54 285.508 1423.22 285.508C1425.69 285.508 1428.19 285.768 1430.7 286.288C1433.26 286.765 1435.4 287.502 1437.13 288.498L1433.43 296.883C1431.7 295.887 1429.96 295.215 1428.23 294.868C1426.5 294.478 1424.85 294.283 1423.29 294.283C1421.21 294.283 1419.74 294.522 1418.87 294.998C1418.05 295.475 1417.63 296.06 1417.63 296.753C1417.63 297.447 1418 297.988 1418.74 298.378C1419.48 298.725 1420.45 299.007 1421.66 299.223C1422.92 299.397 1424.29 299.592 1425.76 299.808C1427.23 299.982 1428.71 300.263 1430.18 300.653C1431.7 301.043 1433.06 301.628 1434.27 302.408C1435.53 303.145 1436.53 304.163 1437.26 305.463C1438 306.72 1438.37 308.345 1438.37 310.338C1438.37 312.505 1437.7 314.455 1436.35 316.188C1435.05 317.922 1433.1 319.308 1430.5 320.348C1427.95 321.388 1424.76 321.908 1420.95 321.908Z" fill="white"/>
<rect x="651" y="357.323" width="197" height="53" rx="7" fill="white"/>
<path d="M662.89 393.323V374.423H671.53C673.258 374.423 674.743 374.702 675.985 375.26C677.245 375.818 678.217 376.628 678.901 377.69C679.585 378.734 679.927 379.976 679.927 381.416C679.927 382.838 679.585 384.071 678.901 385.115C678.217 386.141 677.245 386.933 675.985 387.491C674.743 388.031 673.258 388.301 671.53 388.301H665.86L668.236 386.06V393.323H662.89ZM674.581 393.323L669.883 386.438H675.58L680.305 393.323H674.581ZM668.236 386.627L665.86 384.17H671.206C672.322 384.17 673.15 383.927 673.69 383.441C674.248 382.955 674.527 382.28 674.527 381.416C674.527 380.534 674.248 379.85 673.69 379.364C673.15 378.878 672.322 378.635 671.206 378.635H665.86L668.236 376.178V386.627ZM687.79 381.74H696.565V385.736H687.79V381.74ZM688.168 389.192H698.05V393.323H682.876V374.423H697.699V378.554H688.168V389.192ZM698.749 393.323L707.092 374.423H712.357L720.727 393.323H715.165L708.631 377.042H710.737L704.203 393.323H698.749ZM703.312 389.651L704.689 385.709H713.923L715.3 389.651H703.312ZM722.243 393.323V374.423H731.18C733.268 374.423 735.104 374.81 736.688 375.584C738.272 376.358 739.505 377.447 740.387 378.851C741.287 380.255 741.737 381.929 741.737 383.873C741.737 385.799 741.287 387.473 740.387 388.895C739.505 390.299 738.272 391.388 736.688 392.162C735.104 392.936 733.268 393.323 731.18 393.323H722.243ZM727.589 389.057H730.964C732.044 389.057 732.98 388.859 733.772 388.463C734.582 388.049 735.212 387.455 735.662 386.681C736.112 385.889 736.337 384.953 736.337 383.873C736.337 382.775 736.112 381.839 735.662 381.065C735.212 380.291 734.582 379.706 733.772 379.31C732.98 378.896 732.044 378.689 730.964 378.689H727.589V389.057ZM752.407 393.323V374.423H756.808L764.638 387.275H762.316L769.93 374.423H774.331L774.385 393.323H769.471L769.417 381.902H770.254L764.557 391.46H762.181L756.322 381.902H757.348V393.323H752.407ZM787.698 393.701C786.186 393.701 784.791 393.458 783.513 392.972C782.235 392.486 781.119 391.802 780.165 390.92C779.229 390.02 778.5 388.976 777.978 387.788C777.456 386.6 777.195 385.295 777.195 383.873C777.195 382.451 777.456 381.146 777.978 379.958C778.5 378.77 779.229 377.735 780.165 376.853C781.119 375.953 782.235 375.26 783.513 374.774C784.791 374.288 786.186 374.045 787.698 374.045C789.228 374.045 790.623 374.288 791.883 374.774C793.161 375.26 794.268 375.953 795.204 376.853C796.14 377.735 796.869 378.77 797.391 379.958C797.931 381.146 798.201 382.451 798.201 383.873C798.201 385.295 797.931 386.609 797.391 387.815C796.869 389.003 796.14 390.038 795.204 390.92C794.268 391.802 793.161 392.486 791.883 392.972C790.623 393.458 789.228 393.701 787.698 393.701ZM787.698 389.273C788.418 389.273 789.084 389.147 789.696 388.895C790.326 388.643 790.866 388.283 791.316 387.815C791.784 387.329 792.144 386.753 792.396 386.087C792.666 385.421 792.801 384.683 792.801 383.873C792.801 383.045 792.666 382.307 792.396 381.659C792.144 380.993 791.784 380.426 791.316 379.958C790.866 379.472 790.326 379.103 789.696 378.851C789.084 378.599 788.418 378.473 787.698 378.473C786.978 378.473 786.303 378.599 785.673 378.851C785.061 379.103 784.521 379.472 784.053 379.958C783.603 380.426 783.243 380.993 782.973 381.659C782.721 382.307 782.595 383.045 782.595 383.873C782.595 384.683 782.721 385.421 782.973 386.087C783.243 386.753 783.603 387.329 784.053 387.815C784.521 388.283 785.061 388.643 785.673 388.895C786.303 389.147 786.978 389.273 787.698 389.273ZM801.001 393.323V374.423H809.641C811.369 374.423 812.854 374.702 814.096 375.26C815.356 375.818 816.328 376.628 817.012 377.69C817.696 378.734 818.038 379.976 818.038 381.416C818.038 382.838 817.696 384.071 817.012 385.115C816.328 386.141 815.356 386.933 814.096 387.491C812.854 388.031 811.369 388.301 809.641 388.301H803.971L806.347 386.06V393.323H801.001ZM812.692 393.323L807.994 386.438H813.691L818.416 393.323H812.692ZM806.347 386.627L803.971 384.17H809.317C810.433 384.17 811.261 383.927 811.801 383.441C812.359 382.955 812.638 382.28 812.638 381.416C812.638 380.534 812.359 379.85 811.801 379.364C811.261 378.878 810.433 378.635 809.317 378.635H803.971L806.347 376.178V386.627ZM825.902 381.74H834.677V385.736H825.902V381.74ZM826.28 389.192H836.162V393.323H820.988V374.423H835.811V378.554H826.28V389.192Z" fill="#333333"/>
<defs>
<linearGradient id="paint0_linear_952_5413" x1="18.3594" y1="268.842" x2="1500" y2="263.7" gradientUnits="userSpaceOnUse">
<stop stop-color="#FBB03A"/>
<stop offset="1" stop-color="#FFA600"/>
</linearGradient>
<clipPath id="clip0_952_5413">
<rect width="142" height="147" fill="white" transform="translate(679 91.3232)"/>
</clipPath>
</defs>
</svg>
