<svg width="203" height="54" viewBox="0 0 203 54" fill="none" xmlns="http://www.w3.org/2000/svg">
<g clip-path="url(#clip0_849_6)">
<path d="M116.63 16.1943C113.299 16.1943 110.708 17.5824 108.857 20.3895C107.253 22.7646 106.451 25.911 106.451 29.8284C106.451 34.3937 107.469 37.9102 109.536 40.3779C111.356 42.5063 113.731 43.5859 116.692 43.5859C119.808 43.5859 122.275 42.3829 124.034 39.9461C125.792 37.4784 126.686 34.0544 126.686 29.6434C126.686 25.1706 125.668 21.7159 123.602 19.3407C121.843 17.2431 119.499 16.1943 116.63 16.1943ZM116.692 6.69366C123.571 6.69366 129.031 9.13053 133.102 13.9734C136.588 18.1994 138.346 23.5049 138.346 29.8901C138.346 37.2624 136.094 43.0924 131.56 47.4109C127.612 51.205 122.645 53.0866 116.692 53.0866C109.69 53.0866 104.138 50.6498 100.035 45.8069C96.4877 41.6118 94.7295 36.3062 94.7295 29.8901C94.7295 22.5179 96.9196 16.7804 101.269 12.6162C105.464 8.66783 110.585 6.69366 116.692 6.69366Z" fill="white"/>
<path d="M170.642 19.9576L160.031 51.9761H147.816L136.958 19.9576H148.063L151.332 31.0623C152.566 35.1032 153.461 38.9281 153.985 42.5988C154.448 39.6684 155.312 35.9977 156.576 31.5558L160.031 19.9576H170.642Z" fill="white"/>
<path d="M192.697 32.4195C192.173 28.2553 189.952 26.1886 186.096 26.1886C182.179 26.1886 179.927 28.2553 179.31 32.4195H192.697ZM202.383 42.167C201.889 44.0486 200.933 45.8069 199.545 47.4109C196.368 51.0199 191.988 52.8398 186.405 52.8398C181.346 52.8398 177.243 51.4518 174.128 48.6447C170.642 45.5293 168.884 41.3958 168.884 36.2445C168.884 30.8464 170.704 26.5279 174.313 23.289C177.428 20.482 181.315 19.0939 185.973 19.0939C191.618 19.0939 195.936 20.9447 198.99 24.6463C201.673 27.8851 203 32.1419 203 37.4167C203 37.7868 203 38.1261 203 38.4037H179.186C179.279 40.7172 179.958 42.5063 181.222 43.8327C182.487 45.0974 184.214 45.7452 186.405 45.7452C189.088 45.7452 191.124 44.5422 192.512 42.167H202.383Z" fill="white"/>
<path fill-rule="evenodd" clip-rule="evenodd" d="M88.1898 24.3686V15.2381H55.8628V24.3686H69.1267H71.7487H73.4452C69.9904 27.1448 67.8003 29.0573 66.8441 30.0444L54.3822 42.8765V52.007H89.6087V42.8765H75.2343L71.687 43.0307C71.2243 43.0307 70.4223 42.969 69.3427 42.8765C70.6691 41.8277 71.7487 40.964 72.6124 40.2545C73.9696 39.1132 74.9259 38.2804 75.4502 37.7868L88.1898 24.3686ZM44.0795 8.35937C39.3908 2.77617 33.129 0 25.2323 0C18.2302 0 12.3386 2.28263 7.52652 6.81705C2.49856 11.5674 0 18.1994 0 26.6513C0 34.0236 2.03586 40.1003 6.10758 44.9432C8.14344 47.3492 10.4878 49.2308 13.1406 50.5881L17.274 38.9898C17.1814 38.8973 17.0889 38.7739 16.9964 38.6814C14.6212 35.8435 13.449 31.8026 13.449 26.5587C13.449 22.086 14.3744 18.4461 16.2252 15.7317C18.3536 12.5236 21.3148 10.9196 25.1398 10.9196C28.4404 10.9196 31.124 12.1226 33.1599 14.5286C35.535 17.274 36.7072 21.2223 36.7072 26.3737C36.7072 31.4325 35.6893 35.3808 33.6534 38.2187C33.53 38.4037 33.3758 38.5888 33.2524 38.743L37.4167 50.403C39.1749 49.4467 40.8098 48.2437 42.2904 46.7939C47.4726 41.8277 50.0945 35.134 50.0945 26.6821C50.0945 19.3098 48.0895 13.2331 44.0795 8.35937Z" fill="#FAAD1D"/>
<path d="M23.8132 49.6627L23.5664 52.1921H27.3297L27.0829 49.6627H23.8132ZM24.0908 40.563L23.8749 45.6218H26.9904L26.7744 40.563H24.0908ZM24.3376 31.2782L24.1525 35.3191H26.7127L26.5277 31.2782H24.3376ZM24.4918 25.2323L24.3684 27.9468H26.466L26.3426 25.2323H24.4918ZM24.6152 20.2044L24.5535 21.9009H26.3117L26.25 20.2044H24.6152Z" fill="white"/>
<path d="M26.2499 29.6434C26.1882 29.4891 26.0648 29.3658 25.9414 29.2732C25.8181 29.1807 25.633 29.1498 25.4787 29.1498C25.3245 29.1498 25.1703 29.1807 25.016 29.2732C24.8927 29.3658 24.7693 29.4891 24.7076 29.6434L20.4508 38.4037C20.3582 38.558 20.3274 38.743 20.3582 38.9281C20.3891 39.1132 20.4508 39.2983 20.605 39.4217C20.7284 39.5451 20.8826 39.6376 21.0677 39.6684C21.2528 39.6993 21.4379 39.6684 21.5921 39.6067L25.4787 37.8794L29.3654 39.6067C29.5196 39.6684 29.7047 39.6993 29.8898 39.6684C30.0749 39.6376 30.2291 39.5451 30.3525 39.4217C30.4759 39.2983 30.5684 39.1132 30.5684 38.9281C30.5992 38.743 30.5684 38.558 30.4759 38.4037L26.2499 29.6434Z" fill="#FAAD1D"/>
<path d="M25.8181 36.1211C25.6947 36.0594 25.6021 36.0594 25.4787 36.0594C25.3554 36.0594 25.232 36.0903 25.1394 36.1211L23.0727 37.0465L25.5096 32.0494L27.9465 37.0465L25.8181 36.1211ZM26.2499 29.6434C26.1882 29.4891 26.0648 29.3658 25.9414 29.2732C25.8181 29.1807 25.633 29.1498 25.4787 29.1498C25.3245 29.1498 25.1703 29.1807 25.016 29.2732C24.8927 29.3658 24.7693 29.4891 24.7076 29.6434L20.4508 38.4037C20.3582 38.558 20.3274 38.743 20.3582 38.9281C20.3891 39.1132 20.4508 39.2983 20.605 39.4217C20.7284 39.5451 20.8826 39.6376 21.0677 39.6684C21.2528 39.6993 21.4379 39.6684 21.5921 39.6067L25.4787 37.8794L29.3654 39.6067C29.5196 39.6684 29.7047 39.6993 29.8898 39.6684C30.0749 39.6376 30.2291 39.5451 30.3525 39.4217C30.4759 39.2983 30.5684 39.1132 30.5684 38.9281C30.5992 38.743 30.5684 38.558 30.4759 38.4037L26.2499 29.6434Z" fill="white"/>
<path d="M24.9851 16.9964H25.1702L12.5231 52.1612H5.33594L24.9851 16.9964Z" fill="white"/>
<path d="M25.6337 16.9964H25.4795L38.0957 52.1612H45.2829L25.6337 16.9964Z" fill="white"/>
</g>
<defs>
<clipPath id="clip0_849_6">
<rect width="203" height="53.0866" fill="white"/>
</clipPath>
</defs>
</svg>
