<svg width="56" height="56" viewBox="0 0 56 56" fill="none" xmlns="http://www.w3.org/2000/svg">
<g id="bill-check-svgrepo-com 1">
<rect width="56" height="56" rx="28" fill="#FFAF19"/>
<path id="Vector" d="M35.3967 13H20.6034C18.8007 13 17.8993 13 17.1724 13.2439C15.7939 13.7064 14.7116 14.7808 14.2457 16.1492C14 16.8708 14 17.7656 14 19.5551V40.5613C14 41.8486 15.5322 42.5317 16.5015 41.6764C17.0709 41.1739 17.9291 41.1739 18.4985 41.6764L19.25 42.3395C20.248 43.2202 21.752 43.2202 22.75 42.3395C23.748 41.4589 25.252 41.4589 26.25 42.3395C27.248 43.2202 28.752 43.2202 29.75 42.3395C30.748 41.4589 32.252 41.4589 33.25 42.3395C34.248 43.2202 35.752 43.2202 36.75 42.3395L37.5015 41.6764C38.071 41.1739 38.929 41.1739 39.4985 41.6764C40.4678 42.5317 42 41.8486 42 40.5613V19.5551C42 17.7656 42 16.8708 41.7542 16.1492C41.2883 14.7808 40.2061 13.7064 38.8276 13.2439C38.1007 13 37.1994 13 35.3967 13Z" stroke="white" stroke-width="3"/>
<path id="Vector_2" d="M25 25.6L27 28L32 22" stroke="white" stroke-width="3" stroke-linecap="round" stroke-linejoin="round"/>
<path id="Vector_3" d="M21 34H35" stroke="white" stroke-width="3" stroke-linecap="round"/>
</g>
</svg>
