<svg width="56" height="56" viewBox="0 0 56 56" fill="none" xmlns="http://www.w3.org/2000/svg">
<g id="analysis-analytics-business-svgrepo-com 1">
<rect width="56" height="56" rx="28" fill="#FFAF19"/>
<g id="Layer_x0020_1">
<path id="Vector" d="M45.7327 23.0392H32.9495V11.8266C37.4297 13.0285 41.1997 16.1537 43.1996 20.4073C43.4965 21.0425 44.2499 21.3139 44.8851 21.0138C45.5172 20.7153 45.7901 19.962 45.4932 19.3299C42.9203 13.8649 37.8351 10.0039 31.8945 9.00633C31.5226 8.94727 31.1507 9.04783 30.865 9.28724C30.5809 9.52985 30.4181 9.88259 30.4181 10.2561V24.3065C30.4181 25.0072 30.9831 25.5739 31.6838 25.5739H45.7327C46.4333 25.5739 47 25.0072 47 24.3065C47 23.6075 46.4333 23.0392 45.7327 23.0392ZM40.6666 29.2768H26.7343V19.5119C26.7343 18.8144 26.1677 18.2462 25.467 18.2462C24.7663 18.2462 24.1997 18.8144 24.1997 19.5119V30.5441C24.1997 31.2448 24.7663 31.8098 25.467 31.8098H39.3435C38.7034 38.9029 32.7244 44.4765 25.467 44.4765C17.7849 44.4765 11.5346 38.2261 11.5346 30.5441C11.5346 22.8605 17.7849 16.6102 25.467 16.6102C26.1677 16.6102 26.7343 16.0419 26.7343 15.3444C26.7343 14.6438 26.1677 14.0771 25.467 14.0771C16.3883 14.0771 9 21.4639 9 30.5441C9 39.6227 16.3883 47.0095 25.467 47.0095C34.5472 47.0095 41.9323 39.6227 41.9323 30.5441C41.9323 29.8434 41.3673 29.2768 40.6666 29.2768Z" fill="white"/>
</g>
</g>
</svg>
