<svg width="56" height="56" viewBox="0 0 56 56" fill="none" xmlns="http://www.w3.org/2000/svg">
<g id="support-svgrepo-com 1">
<rect y="6.10352e-05" width="56" height="56" rx="28" fill="#FFAF19"/>
<g id="Page-1">
<g id="support">
<path id="Vector" fill-rule="evenodd" clip-rule="evenodd" d="M43.5408 24.4137C42.9567 18.4216 39.4142 9.00006 28.4663 9.00006C17.5185 9.00006 13.976 18.4216 13.3918 24.4137C11.3427 25.1914 9.99102 27.1588 10 29.3506V31.9886C10 34.9025 12.3623 37.2647 15.2762 37.2647C18.1901 37.2647 20.5522 34.9025 20.5522 31.9886V29.3506C20.5428 27.2062 19.2407 25.2792 17.2547 24.4702C17.6315 21.0031 19.4782 12.7687 28.4663 12.7687C37.4545 12.7687 39.2823 21.0031 39.6591 24.4702C37.6771 25.2809 36.3817 27.2092 36.3804 29.3506V31.9886C36.3886 34.0142 37.5517 35.8577 39.3765 36.7371C38.5851 38.2257 36.5689 40.2419 31.6131 40.8449C30.6225 39.3406 28.7059 38.7476 27.0389 39.4296C25.3718 40.1115 24.4203 41.8778 24.768 43.645C25.1156 45.4123 26.6652 46.6863 28.4663 46.6863C29.8896 46.6784 31.187 45.8693 31.8204 44.5947C39.9041 43.6714 42.4856 39.507 43.2958 37.0574C45.4879 36.3474 46.9621 34.2926 46.9326 31.9886V29.3506C46.9416 27.1588 45.59 25.1914 43.5408 24.4137ZM16.7836 31.9886C16.7836 32.8212 16.1087 33.4961 15.2762 33.4961C14.4436 33.4961 13.7687 32.8212 13.7687 31.9886V29.3506C13.7687 28.8121 14.056 28.3144 14.5224 28.0451C14.9888 27.7758 15.5635 27.7758 16.0299 28.0451C16.4963 28.3144 16.7836 28.8121 16.7836 29.3506V31.9886ZM40.1491 29.3506C40.1491 28.5181 40.824 27.8432 41.6565 27.8432C42.489 27.8432 43.1639 28.5181 43.1639 29.3506V31.9886C43.1639 32.8212 42.489 33.4961 41.6565 33.4961C40.824 33.4961 40.1491 32.8212 40.1491 31.9886V29.3506Z" fill="white"/>
</g>
</g>
</g>
</svg>
