<svg width="56" height="57" viewBox="0 0 56 57" fill="none" xmlns="http://www.w3.org/2000/svg">
<g id="Frame">
<rect y="0.699341" width="56" height="56" rx="28" fill="#373737"/>
<path id="Vector" d="M14.9998 35.1702L14.9998 24.0823C14.9998 22.0464 15.7899 20.0939 17.1964 18.6543C18.6028 17.2148 20.5104 16.406 22.4994 16.406C24.4884 16.406 26.396 17.2148 27.8024 18.6543C29.2089 20.0939 29.999 22.0464 29.999 24.0823L29.999 36.0231C29.999 37.1541 30.438 38.2388 31.2194 39.0386C32.0007 39.8384 33.0605 40.2877 34.1655 40.2877C35.2705 40.2877 36.3303 39.8384 37.1116 39.0386C37.893 38.2388 38.332 37.1541 38.332 36.0231L38.332 24.6452C37.2195 24.2428 36.2819 23.4508 35.6848 22.4092C35.0878 21.3676 34.8697 20.1434 35.0691 18.9532C35.2686 17.7629 35.8727 16.6831 36.7748 15.9047C37.6768 15.1263 38.8187 14.6993 39.9986 14.6993C41.1784 14.6993 42.3203 15.1263 43.2224 15.9047C44.1244 16.6831 44.7286 17.7629 44.928 18.9532C45.1275 20.1434 44.9094 21.3676 44.3123 22.4092C43.7152 23.4508 42.7776 24.2428 41.6651 24.6452L41.6651 36.0231C41.6651 38.059 40.875 40.0114 39.4686 41.451C38.0621 42.8906 36.1545 43.6993 34.1655 43.6993C32.1765 43.6993 30.2689 42.8906 28.8625 41.451C27.456 40.0114 26.6659 38.059 26.6659 36.0231L26.6659 24.0823C26.6659 22.9512 26.2269 21.8665 25.4455 21.0667C24.6642 20.267 23.6044 19.8177 22.4994 19.8177C21.3944 19.8177 20.3346 20.267 19.5533 21.0667C18.7719 21.8665 18.3329 22.9512 18.3329 24.0823L18.3329 35.1702L23.3327 35.1702L16.6663 43.6993L10 35.1702L14.9998 35.1702Z" fill="#FFAF19"/>
</g>
</svg>
